<?xml version="1.0" encoding="UTF-8"?>
<svg width="140px" height="149px" viewBox="0 0 140 149" version="1.1" xmlns="http://www.w3.org/2000/svg" xmlns:xlink="http://www.w3.org/1999/xlink">
    <!-- Generator: Sketch 52.2 (67145) - http://www.bohemiancoding.com/sketch -->
    <title>envelope_icon</title>
    <desc>Created with Sketch.</desc>
    <g id="1.0-Admin-Webapp" stroke="none" stroke-width="1" fill="none" fill-rule="evenodd">
        <g id="Admin---Members---Invite" transform="translate(-613.000000, -209.000000)">
            <g id="Modal---Add" transform="translate(333.000000, 163.472656)">
                <g id="envelope_icon" transform="translate(280.000000, 44.023438)">
                    <path d="M74.8397271,4.01191083 L129.172886,46.2225617 C133.639084,49.489074 136.581471,51.7284871 138.113701,53.9510624 L114.130513,75.2423244 L114.130513,54.9949994 C114.130513,49.722697 110.983969,46.5761532 105.711667,46.5761532 L34.1514744,46.5761532 C28.879172,46.5761532 25.7326282,49.722697 25.7326282,54.9949994 L25.7326282,75.2423244 L1.82100042,54.0163085 C3.39111522,51.8442462 6.35244436,49.5206447 10.8102234,46.1320591 L65.0235225,4.01205057 C67.9110409,1.76864714 71.9521448,1.76858961 74.8397271,4.01191083 Z M109.92109,54.9928947 L109.92109,78.9781873 L88.9434298,97.5985703 C88.8929168,97.6427693 88.8276707,97.659607 88.7792623,97.71012 C88.7561105,97.7353766 88.7497964,97.7648425 88.7287493,97.7900991 L69.9315705,114.472043 L51.1343918,97.7879944 C51.1133446,97.7627378 51.1049258,97.7332719 51.0838787,97.7080153 C51.0354703,97.659607 50.9702243,97.6406646 50.9197112,97.5964656 L29.9420513,78.9781873 L29.9420513,54.9928947 C29.9420513,52.0820786 31.2406583,50.7834716 34.1514744,50.7834716 L105.711667,50.7834716 C108.622483,50.7834716 109.92109,52.0841833 109.92109,54.9928947 L109.92109,54.9928947 Z M139.387051,140.663073 C139.387051,145.649135 135.329167,149.707019 130.343106,149.707019 L9.52003522,149.707019 C4.53397359,149.707019 0.476089744,145.649135 0.476089744,140.663073 L0.476089744,58.4530404 L46.4661416,99.2739207 L11.2985165,133.5723 C10.4650507,134.384719 10.4503177,135.717001 11.2606317,136.548362 C11.6731551,136.971409 12.2203801,137.183985 12.7676051,137.183985 C13.2979924,137.183985 13.8283797,136.984037 14.2366938,136.586247 L49.6232089,102.075292 L68.5340421,118.862471 C68.9318325,119.216063 69.4327539,119.392858 69.9315705,119.392858 C70.4303871,119.392858 70.9313085,119.216063 71.329099,118.862471 L90.2399321,102.075292 L125.626447,136.586247 C126.034761,136.984037 126.565149,137.183985 127.095536,137.183985 C127.642761,137.183985 128.189986,136.971409 128.602509,136.548362 C129.414928,135.714896 129.39809,134.384719 128.564625,133.5723 L93.3969995,99.271816 L139.387051,58.4530404 L139.387051,140.663073 L139.387051,140.663073 Z" id="Envelope---Border" fill="#DBDBDB"></path>
                    <path d="M81.4488752,68.2018082 C84.5068229,71.2597559 86.0357738,74.9442769 86.0357738,79.2554818 C86.0357738,83.5666868 84.5068229,87.2512078 81.4488752,90.3091555 C78.3909275,93.3671031 74.7064065,94.896054 70.3952016,94.896054 C66.0839966,94.896054 62.3994756,93.3671031 59.3415279,90.3091555 C56.2835802,87.2512078 54.7546293,83.5666868 54.7546293,79.2554818 C54.7546293,74.9442769 56.2835802,71.2597559 59.3415279,68.2018082 C62.3994756,65.1438605 66.0839966,63.6149096 70.3952016,63.6149096 C74.7064065,63.6149096 78.3909275,65.1438605 81.4488752,68.2018082 Z" id="Path" fill="#69ADD3"></path>
                    <polygon id="Plus-Icon" stroke="#FFFFFF" stroke-width="2" fill="#FFFFFF" points="77.8618682 79.7582226 70.8618682 79.7582226 70.8618682 86.4055731 69.8702016 86.4055731 69.8702016 79.7582226 62.9285349 79.7582226 62.9285349 78.8086011 69.8702016 78.8086011 69.8702016 72.1053906 70.8618682 72.1053906 70.8618682 78.8086011 77.8618682 78.8086011"></polygon>
                </g>
            </g>
        </g>
    </g>
</svg>