<?xml version="1.0" encoding="UTF-8"?>
<svg width="39px" height="39px" viewBox="0 0 39 39" version="1.1" xmlns="http://www.w3.org/2000/svg" xmlns:xlink="http://www.w3.org/1999/xlink">
    <!-- Generator: sketchtool 52.2 (67145) - http://www.bohemiancoding.com/sketch -->
    <title>E263D6F8-D1BA-4B41-B4B7-C9964E13C69B</title>
    <desc>Created with sketchtool.</desc>
    <g id="5.1-Admin-Webapp" stroke="none" stroke-width="1" fill="none" fill-rule="evenodd">
        <g id="5.1-Admin---Dashboard" transform="translate(-948.000000, -835.000000)" fill="#2D2F89">
            <g id="Statistic-Grid" transform="translate(166.000000, 663.000000)">
                <g id="stat/default" transform="translate(761.000000, 151.000000)">
                    <g id="card/icon" transform="translate(12.000000, 13.000000)">
                        <path d="M40.8526435,40.0397658 C45.0422867,41.6207632 47.137077,43.6760291 47.137077,46.2056251 L9.19332754,46.2056251 C9.19332754,43.6760291 11.2881178,41.6207632 15.477761,40.0397658 C16.11016,39.8026162 17.0587443,39.5852323 18.3235422,39.3876076 C19.5883402,39.1899829 20.3393027,39.0516477 20.5764524,38.9725978 C21.9203002,38.5773485 22.7107871,38.2216294 22.9479367,37.9054299 L23.0665109,33.043887 C22.5922117,32.2533882 22.2364926,31.5419501 21.999343,30.9095511 L21.1693234,27.1151761 C20.6159743,27.1151761 20.2602552,26.640884 20.1021555,25.6922855 C20.0231056,25.2179863 19.8847704,24.6646455 19.6871457,24.0322465 C19.4895211,23.3998475 19.3907102,22.886031 19.3907102,22.4907817 C19.3907102,22.1745822 19.4302345,21.9176739 19.5092844,21.7200493 C19.5883343,21.5224246 19.7069073,21.3840894 19.8650071,21.3050395 L19.9835813,21.3050395 C19.6673818,20.2773911 19.4697601,18.6173687 19.3907102,16.3249224 C19.3116603,14.1905758 20.0626229,12.3131695 21.6436203,10.6926471 C23.2246178,9.07212468 25.3984567,8.26187563 28.1652022,8.26187563 C30.9319478,8.26187563 33.1057867,9.07212468 34.6867842,10.6926471 C36.2677816,12.3131695 37.0187442,14.1905758 36.9396943,16.3249224 L36.3468232,21.3050395 C36.7420726,21.3840894 36.9396943,21.7793328 36.9396943,22.4907817 C36.9396943,22.6488814 36.7025482,23.755563 36.228249,25.8108597 C36.1491991,26.2061091 36.0306261,26.5223039 35.8725264,26.7594535 C35.7144266,26.9966031 35.5563292,27.1547005 35.3982295,27.2337503 L35.1610811,27.2337503 C34.8448816,29.0518974 34.5682112,30.2771521 34.3310615,30.9095511 L33.2638936,33.043887 C33.1057938,35.9687323 33.1453182,37.5892304 33.3824678,37.9054299 C33.6196174,38.2216294 34.4101043,38.5773485 35.7539521,38.9725978 C35.9911018,39.0516477 36.7420643,39.1899829 38.0068623,39.3876076 C39.2716602,39.5852323 40.2202445,39.8026162 40.8526435,40.0397658 Z M44.40987,44.3084376 C44.0936705,43.8341383 43.7774757,43.5179436 43.4612762,43.3598439 C42.7498274,42.8855446 41.6826701,42.3717281 40.2597724,41.818379 C39.3111739,41.5812294 38.283541,41.3836077 37.1768427,41.2255079 C36.9396931,41.2255079 36.7223092,41.2057458 36.5246845,41.1662208 C36.3270599,41.1266959 36.1294381,41.0674094 35.9318135,40.9883595 C35.7341888,40.9093096 35.5563292,40.8697853 35.3982295,40.8697853 C33.5800824,40.2373863 32.4338764,39.6445212 31.9595772,39.091172 C31.485278,38.4587731 31.2481319,37.1939941 31.2481319,35.2967971 L31.3667061,32.9253128 L31.3667061,32.4510159 L31.6038545,31.976719 L31.841003,31.6209964 C31.9991027,31.3838468 32.1374379,31.1467007 32.2560127,30.9095511 C32.3745875,30.6724014 32.4733984,30.4352554 32.5524483,30.1981058 C32.8686478,29.407607 33.1057938,28.3009254 33.2638936,26.8780277 L33.3824678,26.4037308 C33.4615177,26.1665812 33.6591394,25.9887217 33.9753389,25.8701468 C34.2915384,25.751572 34.4496357,25.6132368 34.4496357,25.4551371 L34.6867842,24.862266 C34.8448839,24.3879668 34.963457,23.8741503 35.0425068,23.3208012 C35.1215567,22.8465019 35.042508,22.4117342 34.8053584,22.0164848 C34.5682088,21.6212354 34.4496357,21.3840894 34.4496357,21.3050395 L34.56821,20.7121684 L34.56821,20.47502 C34.6472598,20.3169202 34.7065464,20.1192985 34.7460713,19.8821489 C34.7855962,19.6449993 34.8251206,19.3485667 34.8646455,18.9928423 C34.9041704,18.6371178 34.9436948,18.2221122 34.9832197,17.747813 C35.0227447,17.2735137 35.0425068,16.7596973 35.0425068,16.2063482 C35.0425068,14.5463008 34.489166,13.1629488 33.3824678,12.0562506 C32.1176698,10.7914526 30.3785987,10.1590631 28.1652022,10.1590631 C25.8727559,10.1590631 24.0941605,10.7914526 22.8293625,12.0562506 C21.8017141,13.0838989 21.2878977,14.467251 21.2878977,16.2063482 C21.2878977,16.7596973 21.3076598,17.2735137 21.3471848,17.747813 C21.3867097,18.2221122 21.4262341,18.6371178 21.465759,18.9928423 C21.5052839,19.3485667 21.5448083,19.6449993 21.5843332,19.8821489 C21.6238581,20.1192985 21.6831447,20.3169202 21.7621945,20.47502 L21.7621945,20.7121684 C21.8412444,20.949318 21.8412444,21.1864641 21.7621945,21.4236137 L21.5250461,22.0164848 C21.2878965,22.3326843 21.2088478,22.7674521 21.2878977,23.3208012 C21.3669475,23.8741503 21.4855206,24.3879668 21.6436203,24.862266 L21.8807688,25.4551371 C21.8807688,25.6132368 22.0388661,25.751572 22.3550656,25.8701468 C22.6712651,25.9887217 22.8688868,26.1665812 22.9479367,26.4037308 L23.0665109,26.8780277 C23.2246107,28.3009254 23.4617567,29.407607 23.7779562,30.1981058 C24.0151058,31.0676544 24.3313006,31.6605195 24.72655,31.976719 L24.9636984,32.4510159 L24.9636984,32.9253128 C25.0427483,33.7158115 25.0822726,34.5062984 25.0822726,35.2967971 C25.0822726,37.1939941 24.8451265,38.4587731 24.3708273,39.091172 C23.8965281,39.6445212 22.7503221,40.2373863 20.932175,40.8697853 C20.1416763,41.027885 19.5092868,41.1464581 19.0349875,41.2255079 C18.0863891,41.3045578 17.0982805,41.5021795 16.0706321,41.818379 C14.6477344,42.3717281 13.5805771,42.8855446 12.8691283,43.3598439 C12.5529288,43.5179436 12.236734,43.8341383 11.9205345,44.3084376 L44.40987,44.3084376 Z" id="instructor-indigo_Icon"></path>
                    </g>
                </g>
            </g>
        </g>
    </g>
</svg>