<?xml version="1.0" encoding="UTF-8"?>
<svg width="51px" height="32px" viewBox="0 0 51 32" version="1.1" xmlns="http://www.w3.org/2000/svg" xmlns:xlink="http://www.w3.org/1999/xlink">
    <!-- Generator: Sketch 52.6 (67491) - http://www.bohemiancoding.com/sketch -->
    <title>ion-ios-videocam-outline</title>
    <desc>Created with Sketch.</desc>
    <g id="Student-Mobile-Webapp" stroke="none" stroke-width="1" fill="none" fill-rule="evenodd">
        <g id="5.1-Student:-Lesson-Summary-(320px-576px)" transform="translate(-57.000000, -553.000000)" fill="#E253FF">
            <g id="Snapshot" transform="translate(0.000000, 502.000000)">
                <g id="Total-Videos">
                    <path d="M88.2757454,51.984375 C89.3921785,51.984375 90.3291707,52.3631591 91.0867502,53.1207386 C91.8443298,53.8783182 92.2231139,54.8153104 92.2231139,55.9317434 L92.2231139,78.4197817 C92.2231139,79.5362147 91.8443298,80.5130789 91.0867502,81.3504037 C90.3291707,82.1877285 89.3921785,82.6063846 88.2757454,82.6063846 L61.8403387,82.6063846 C60.7239057,82.6063846 59.7271055,82.1877285 58.8499081,81.3504037 C57.9727108,80.5130789 57.5341187,79.5362147 57.5341187,78.4197817 L57.5341187,55.9317434 C57.5341187,54.8153104 57.9527748,53.8783182 58.7900995,53.1207386 C59.6274243,52.3631591 60.6441605,51.984375 61.8403387,51.984375 L88.2757454,51.984375 Z M90.189621,78.4197817 L90.189621,55.9317434 C90.189621,55.3735269 89.990261,54.9149988 89.5915349,54.5561453 C89.1928088,54.1972919 88.7143447,54.0178678 88.1561282,54.0178678 L61.7207215,54.0178678 C61.162505,54.0178678 60.6641049,54.1972919 60.2255062,54.5561453 C59.7869075,54.9149988 59.5676115,55.3735269 59.5676115,55.9317434 L59.5676115,78.4197817 C59.5676115,78.9779982 59.8068435,79.4763983 60.2853148,79.914997 C60.7637861,80.3535957 61.2821222,80.5728917 61.8403387,80.5728917 L88.2757454,80.5728917 C88.833962,80.5728917 89.2924901,80.3535957 89.6513435,79.914997 C90.010197,79.4763983 90.189621,78.9779982 90.189621,78.4197817 Z M95.8116306,62.1518391 L107.534119,55.8121262 L107.534119,78.7786334 L95.8116306,72.4389205 L95.8116306,62.1518391 Z M105.500626,59.4006429 L97.8451234,63.3480114 L97.8451234,71.2427482 L105.500626,75.1901166 L105.500626,59.4006429 Z" id="ion-ios-videocam-outline"></path>
                </g>
            </g>
        </g>
    </g>
</svg>