<?xml version="1.0" encoding="UTF-8"?>
<svg width="25px" height="20px" viewBox="0 0 25 20" version="1.1" xmlns="http://www.w3.org/2000/svg" xmlns:xlink="http://www.w3.org/1999/xlink">
    <!-- Generator: sketchtool 48.2 (47327) - http://www.bohemiancoding.com/sketch -->
    <title>2AEF914C-C2A0-4E4B-90D3-446AFE25CE0F</title>
    <desc>Created with sketchtool.</desc>
    <defs>
        <filter x="-1.3%" y="-1.2%" width="102.6%" height="103.1%" filterUnits="objectBoundingBox" id="filter-1">
            <feOffset dx="0" dy="3" in="SourceAlpha" result="shadowOffsetOuter1"></feOffset>
            <feGaussianBlur stdDeviation="3.5" in="shadowOffsetOuter1" result="shadowBlurOuter1"></feGaussianBlur>
            <feColorMatrix values="0 0 0 0 0   0 0 0 0 0   0 0 0 0 0  0 0 0 0.2 0" type="matrix" in="shadowBlurOuter1" result="shadowMatrixOuter1"></feColorMatrix>
            <feMerge>
                <feMergeNode in="shadowMatrixOuter1"></feMergeNode>
                <feMergeNode in="SourceGraphic"></feMergeNode>
            </feMerge>
        </filter>
    </defs>
    <g id="Instructor---History" stroke="none" stroke-width="1" fill="none" fill-rule="evenodd" transform="translate(-277.000000, -585.000000)" fill-opacity="0.5">
        <g id="Members-Table" transform="translate(214.000000, 567.398327)" fill="#F4F7F9">
            <g id="Frame" filter="url(#filter-1)" transform="translate(0.000000, 0.184049)">
                <g id="Titles">
                    <path d="M75.6576761,25.9341362 L80.6843423,21.1096922 C80.8384172,20.9556174 80.9924897,20.9556174 81.1465645,21.1096922 L82.04212,21.9763588 C82.1961948,22.1304336 82.1961948,22.2845062 82.04212,22.438581 L75.8887872,28.3319138 C75.8310091,28.3896919 75.7539729,28.4185805 75.6576761,28.4185805 C75.5613793,28.4185805 75.4843431,28.3896919 75.426565,28.3319138 L69.2732322,22.438581 C69.1191574,22.2845062 69.1191574,22.1304336 69.2732322,21.9763588 L70.1687877,21.1096922 C70.3228625,20.9556174 70.4769351,20.9556174 70.6310099,21.1096922 L75.6576761,25.9341362 Z" id="ion-chevron-down"></path>
                </g>
            </g>
        </g>
    </g>
</svg>