<?xml version="1.0" encoding="UTF-8"?>
<svg width="132px" height="30px" viewBox="0 0 132 30" version="1.1" xmlns="http://www.w3.org/2000/svg" xmlns:xlink="http://www.w3.org/1999/xlink">
    <!-- Generator: sketchtool 52.6 (67491) - http://www.bohemiancoding.com/sketch -->
    <title>96D04BE4-7C02-4E8F-926F-D8B339FAD365</title>
    <desc>Created with sketchtool.</desc>
    <g id="5.1---Instructor-iPad" stroke="none" stroke-width="1" fill="none" fill-rule="evenodd">
        <g id="5.1-Instructor:-History" transform="translate(-618.000000, -979.000000)">
            <g id="Navigation" transform="translate(0.000000, 964.000000)">
                <g id="Logo" transform="translate(618.000000, 15.000000)">
                    <g id="Wordmark" transform="translate(44.619718, 10.225352)">
                        <path d="M77.4888613,14.2391202 L77.4888613,0.673403723 C77.4888613,0.468483536 77.6493821,0.284055367 77.8700982,0.284055367 L82.4449414,0.284055367 C84.9129489,0.284055367 86.9395242,2.33325724 86.9395242,4.81279152 C86.9395242,7.35380185 84.9129489,9.42349574 82.4650065,9.42349574 L79.5555668,9.42349574 L79.5555668,14.2391202 C79.5555668,14.4440403 79.3749808,14.6284685 79.1743298,14.6284685 L77.8700982,14.6284685 C77.6493821,14.6284685 77.4888613,14.4440403 77.4888613,14.2391202 Z M79.5555668,7.4152779 L82.3245508,7.4152779 C83.7090428,7.4152779 84.8728187,6.26772485 84.8728187,4.7922995 C84.8728187,3.39884222 83.7090428,2.33325724 82.3245508,2.33325724 L79.5555668,2.33325724 L79.5555668,7.4152779 Z" id="P" fill="#69ADD3"></path>
                        <path d="M61.3856462,14.6284685 C61.0846697,14.6284685 60.9241489,14.3620723 61.0445395,14.095676 L67.2045257,0.304547385 C67.264721,0.181595273 67.445307,0.0791351789 67.5456325,0.0791351789 L67.7462835,0.0791351789 C67.846609,0.0791351789 68.0271949,0.181595273 68.0873902,0.304547385 L74.2072462,14.095676 C74.3276368,14.3620723 74.167116,14.6284685 73.8661395,14.6284685 L72.6020381,14.6284685 C72.3612569,14.6284685 72.2208012,14.5055164 72.1405408,14.3210882 L70.8965044,11.5136817 L64.3352162,11.5136817 C63.9339142,12.4563145 63.512547,13.3784554 63.111245,14.3210882 C63.0510497,14.4645324 62.8905289,14.6284685 62.6497476,14.6284685 L61.3856462,14.6284685 Z M65.1177552,9.75136804 L70.1340306,9.75136804 L67.6660231,4.1365549 L67.5656976,4.1365549 L65.1177552,9.75136804 Z" id="Combined-Shape" fill="#69ADD3"></path>
                        <path d="M46.6669232,7.47675396 C46.6669232,3.3783502 49.8974046,0.0791351789 53.9104249,0.0791351789 C55.9370002,0.0791351789 57.4017526,0.775863817 58.7661795,1.98489293 C58.9467655,2.14882908 58.9467655,2.3947333 58.7862446,2.55866945 L57.9033802,3.4808103 C57.7629245,3.66523847 57.5823385,3.66523847 57.4017526,3.4808103 C56.4586928,2.64063753 55.1745263,2.10784504 53.93049,2.10784504 C51.0611805,2.10784504 48.8941495,4.56688729 48.8941495,7.43576992 C48.8941495,10.3046525 51.0812456,12.7432028 53.9505551,12.7432028 C55.4153076,12.7432028 56.4386277,12.1489342 57.4017526,11.3907295 C57.5823385,11.2472854 57.7629245,11.2677774 57.8833151,11.3702375 L58.8063098,12.2923784 C58.9668306,12.4358225 58.9267004,12.7022187 58.7862446,12.8456629 C57.4218177,14.1981361 55.696219,14.8333887 53.9104249,14.8333887 C49.8974046,14.8333887 46.6669232,11.5751577 46.6669232,7.47675396 Z" id="Path" fill="#69ADD3"></path>
                        <path d="M36.1799471,0.0304170489 C40.2511033,0.0304170489 43.5077993,3.37746232 43.5077993,7.53640881 C43.5077993,11.6941854 40.2511033,14.9991148 36.1799471,14.9991148 C32.1087908,14.9991148 28.8715686,11.6941854 28.8715686,7.53640881 C28.8715686,3.37746232 32.1087908,0.0304170489 36.1799471,0.0304170489 M36.1799471,11.6731275 C38.4194267,11.6731275 40.2511033,9.80247895 40.2511033,7.53640881 C40.2511033,5.24928071 38.4194267,3.35640436 36.1799471,3.35640436 C33.9610867,3.35640436 32.1282646,5.24928071 32.1282646,7.53640881 C32.1282646,9.80247895 33.9610867,11.6731275 36.1799471,11.6731275" id="Fill-13" fill="#FFFFFF"></path>
                        <path d="M13.1354156,0.404663739 C13.1354156,0.196423943 13.3186979,0.0303000603 13.5225993,0.0303000603 L14.0312075,0.0303000603 L22.1540463,8.01360551 L22.1746655,8.01360551 L22.1746655,0.632791606 C22.1746655,0.425721696 22.3373285,0.238539857 22.5618492,0.238539857 L25.0040847,0.238539857 C25.2079862,0.238539857 25.3912684,0.425721696 25.3912684,0.632791606 L25.3912684,14.625804 C25.3912684,14.8328739 25.2079862,15.0001677 25.0040847,15.0001677 L24.6787588,15.0001677 C24.6169011,15.0001677 24.4542381,14.9369938 24.4141451,14.8960478 L16.3726378,6.64132865 L16.3520186,6.64132865 L16.3520186,14.3965062 C16.3520186,14.604746 16.1893556,14.7919279 15.9648349,14.7919279 L13.5420731,14.7919279 C13.3393171,14.7919279 13.1560349,14.604746 13.1560349,14.3965062 L13.1354156,0.404663739 Z" id="Fill-11" fill="#FFFFFF"></path>
                        <path d="M0.168427828,12.8166915 L1.1249319,11.0911089 C1.28874038,10.8208651 1.67477856,10.8618112 1.81682227,10.9659311 C1.89929927,11.008047 3.3644115,12.1100801 4.70809926,12.1100801 C5.52255962,12.1100801 6.11249925,11.5894806 6.11249925,10.8618112 C6.11249925,9.98907585 5.39998963,9.32341043 4.01620889,8.7630348 C2.26586371,8.05525347 0.0664770945,6.66308854 0.0664770945,4.16772064 C0.0664770945,2.1098903 1.63354006,0.0310019922 4.76881149,0.0310019922 C6.88686662,0.0310019922 8.51464182,1.13186519 9.12520071,1.58929081 C9.37034067,1.73552662 9.32910218,2.1098903 9.24777069,2.25495622 L8.20993513,3.85536095 C8.06789141,4.0846587 7.70018147,4.27184054 7.51804476,4.12560473 C7.33361703,4.02265472 5.84788555,2.87850572 4.60614853,2.87850572 C3.87301966,2.87850572 3.323173,3.37804726 3.323173,3.93959278 C3.323173,4.70820821 3.9348774,5.29081168 5.54203335,5.95530721 C7.13086108,6.59991467 9.65442811,7.86807163 9.65442811,10.6956873 C9.65442811,12.8377495 7.8433707,14.9996997 4.85014298,14.9996997 C2.20400596,14.9996997 0.738893731,13.8766087 0.270378562,13.399295 C0.0664770945,13.1910552 0.00576485986,13.1079933 0.168427828,12.8166915" id="Fill-9" fill="#FFFFFF"></path>
                    </g>
                    <g id="Icon" fill="#FFFFFF">
                        <path d="M16.268473,15.2494912 L14.1624348,20.9793311 C14.1212208,21.0920908 14.2707154,21.1749805 14.3452754,21.0805162 L15.5517231,19.5478045 C15.5831957,19.5074798 15.639022,19.4955318 15.6843574,19.5194279 L17.1129864,20.2669282 C17.1729341,20.2982918 17.2463701,20.2665548 17.2643544,20.2019606 L17.567465,19.1143141 C17.5775812,19.0780966 17.606431,19.0500933 17.6427743,19.0403855 L18.8971802,18.7133075 C18.9698668,18.6942652 19.0002154,18.6080152 18.9548799,18.5479016 L16.4524375,15.2226081 C16.4022313,15.1554003 16.2973228,15.1707087 16.268473,15.2494912" id="Fill-1"></path>
                        <path d="M7.67605471,18.9689959 L5.50182606,21.8873087 C5.4355089,21.9765457 5.51756233,22.09976 5.62621756,22.0732503 C6.02187248,21.975799 7.5741436,20.7798732 7.5741436,20.7798732 C7.5741436,20.7798732 8.53030964,21.0808149 8.97954282,20.8082498 C9.03761717,20.772779 9.05260409,20.69549 9.01438743,20.6394835 L7.87013543,18.9727296 C7.82405063,18.9055218 7.72476223,18.9036549 7.67605471,18.9689959" id="Fill-3"></path>
                        <path d="M26.7360932,12.5892564 L24.9376618,20.2804444 C24.9035665,20.4667594 25.1396106,20.5772789 25.2617541,20.4324088 L26.9039468,17.657846 C26.9740107,17.5749564 27.1006502,17.5697291 27.1774582,17.6462713 L28.4078851,18.8365965 C28.4873158,18.9157523 28.6184514,18.9071647 28.6866419,18.818301 L29.4056398,17.7859142 C29.4610915,17.7138525 29.5615039,17.6921967 29.641684,17.7358818 L32.4817069,19.563561 C32.8196621,19.7461423 33.1572427,19.3219863 32.9020903,19.0356063 L26.899076,12.5448246 C26.8473711,12.4854577 26.7503308,12.5119674 26.7360932,12.5892564" id="Fill-5"></path>
                        <path d="M4.94907067,5.8205704 C4.03824008,6.75065192 3.20871359,7.77781141 2.48372092,8.86956507 L2.48372092,8.86956507 C1.40541142,10.4933806 0.557151264,12.2590793 0.0149991255,14.0572619 C-0.00823061374,14.1338041 -0.00148649591,14.176369 0.0149991255,14.517262 L0.0149991255,25.4456266 C0.0149991255,26.9581759 0.820921206,28.2859036 2.02736895,29.0263098 C2.66918417,29.4205956 3.42452536,29.6483555 4.23194614,29.6483555 L13.6991889,29.6483555 C15.2885526,29.6483555 16.7261738,28.7731603 17.4519158,27.363663 C17.7568998,26.7707407 18.3383926,26.4167796 19.0071843,26.4167796 C19.6763506,26.4167796 20.2574688,26.7707407 20.5628275,27.363663 C21.2881948,28.7731603 22.7258159,29.6483555 24.3151797,29.6483555 L33.4879293,29.6483555 C34.6902556,29.6483555 35.7756839,29.1435501 36.5445134,28.3366829 C37.2631366,27.5828352 37.705251,26.5650101 37.705251,25.4456266 L37.705251,16.4894381 C37.7112457,15.5018566 37.7112457,14.9220024 37.705251,14.5710283 C37.6973828,14.1009469 37.6790238,14.0404599 37.6527967,13.9527164 C37.1102699,12.1638683 36.2852395,10.4250527 35.2361545,8.82662674 L35.2361545,8.82662674 C34.5149086,7.72740554 33.6865061,6.69613892 32.768182,5.76157687 C32.1050105,5.08725843 31.3980021,4.4611056 30.648281,3.89992032 C27.2391294,1.34863688 23.1739251,0 18.8914103,0 C14.604774,0 10.5354483,1.35125052 7.12404867,3.90813461 C6.35934064,4.48089457 5.63172526,5.12384936 4.94907067,5.8205704 L4.94907067,5.8205704 Z M35.2361545,25.4456266 C35.2361545,26.406325 34.4519635,27.1878026 33.4879293,27.1878026 L24.3151797,27.1878026 C23.6565042,27.1878026 23.0603991,26.8248804 22.7599112,26.2409191 C22.0345438,24.8317952 20.5965481,23.9562267 19.0071843,23.9562267 L19.0071843,23.9562267 C17.4181952,23.9562267 15.9801994,24.8317952 15.2548321,26.2405457 C14.9539695,26.8248804 14.3582391,27.1878026 13.6991889,27.1878026 L4.23194614,27.1878026 C3.26791196,27.1878026 2.48372092,26.406325 2.48372092,25.4456266 L2.48372092,22.5500898 C2.50282926,22.5855606 2.52156292,22.6210314 2.54104593,22.6568755 L2.54104593,22.569132 L7.89999689,18.2215329 C8.20573023,18.6848935 8.43990099,19.0325073 8.59988645,19.259147 C8.95207927,19.7568582 9.52345592,20.4207221 10.4204236,20.4360305 L10.4511468,20.4360305 C11.4279199,20.4360305 12.0378879,19.6332705 12.2709346,19.3263548 C12.8685384,18.5355428 13.5661799,17.6853639 14.240217,16.8628149 C14.944228,16.0044217 15.6703447,15.1191454 16.31778,14.2607522 C16.3248988,14.2715801 16.3316429,14.282408 16.338387,14.2936093 C16.8220901,15.0620187 17.3125373,15.6512073 17.8314597,16.2747465 C18.0933563,16.5895031 18.3638704,16.9147142 18.6422526,17.2750228 C18.9097692,17.6711756 19.5755635,18.6214194 20.652749,18.6214194 L20.6714827,18.6214194 C21.7955023,18.6098448 22.4616713,17.5752177 22.710829,17.1883994 C23.7677821,15.5552494 24.8573318,14.0333657 26.010576,12.4218716 C26.2016593,12.155654 26.392368,11.8886896 26.583826,11.6209785 L35.1428609,20.7067287 C35.1754574,20.6593098 35.2088034,20.6111442 35.2361545,20.5704462 L35.2361545,25.4456266 Z M10.6190004,4.573492 C13.1364297,3.18751745 15.9547216,2.46055289 18.8914103,2.46055289 C21.8333443,2.46055289 24.6561323,3.18975771 27.1769337,4.58058616 C27.8693298,4.96255059 28.5399948,5.3915605 29.1829341,5.87246977 C32.0409413,8.01117189 34.1851961,11.0411243 35.2290357,14.4123432 C35.2316584,14.4496808 35.2342811,14.4970997 35.2361545,14.5519861 L35.2361545,14.5519861 L35.2361545,17.210802 L27.2410028,8.72357475 L26.945011,8.62500329 C26.3354177,8.4222597 25.6898557,8.61865588 25.3380376,9.11562036 C24.8918018,9.74849398 24.4451913,10.3724066 24.0008289,10.9929587 C22.8858014,12.5506866 21.7329319,14.1606872 20.6467543,15.8375223 C20.6463796,15.8371489 20.6463796,15.8364021 20.6456302,15.8360288 L20.6182791,15.7990645 C20.305427,15.3932039 20.0139312,15.0426031 19.7318023,14.7039504 C19.2462258,14.1207359 18.8273411,13.6166773 18.4309369,12.987164 C18.0405274,12.3658651 17.4511664,11.4271959 16.414071,11.3868712 C15.4091974,11.3461732 14.7849918,12.1907514 14.4845039,12.5954918 C13.8351953,13.4688201 13.0693632,14.4026354 12.3286343,15.3058338 C11.6995579,16.0727496 11.0509986,16.8635616 10.4676324,17.6245035 C10.2188494,17.2604611 9.84642423,16.6962888 9.35747569,15.9424411 C9.11656081,15.5701845 8.72914871,15.3286097 8.29452778,15.2800708 C7.88913137,15.233772 7.48823103,15.362587 7.18137367,15.6317917 L2.54104593,19.3965496 L2.54104593,19.0929943 C2.52231227,19.1079294 2.50282926,19.1224911 2.48372092,19.1374261 L2.48372092,17.4732859 L2.48372092,17.233578 C2.49908253,17.2350715 2.51444413,17.236565 2.52980573,17.2380585 C2.51819086,15.895769 2.52081357,14.7782524 2.54591668,14.4392263 C3.58563484,11.0609133 5.72988964,8.0238667 8.59089429,5.87956393 C9.24057764,5.39268063 9.91873616,4.9591902 10.6190004,4.573492 L10.6190004,4.573492 Z" id="Fill-7"></path>
                    </g>
                </g>
            </g>
        </g>
    </g>
</svg>