<?xml version="1.0" encoding="UTF-8"?>
<svg width="52px" height="42px" viewBox="0 0 52 42" version="1.1" xmlns="http://www.w3.org/2000/svg" xmlns:xlink="http://www.w3.org/1999/xlink">
    <!-- Generator: Sketch 53.2 (72643) - https://sketchapp.com -->
    <title>Watermark Logo@1x</title>
    <desc>Created with Sketch.</desc>
    <defs>
        <filter x="-17.0%" y="-21.6%" width="134.0%" height="143.2%" filterUnits="objectBoundingBox" id="filter-1">
            <feOffset dx="0" dy="2" in="SourceAlpha" result="shadowOffsetOuter1"></feOffset>
            <feGaussianBlur stdDeviation="1" in="shadowOffsetOuter1" result="shadowBlurOuter1"></feGaussianBlur>
            <feColorMatrix values="0 0 0 0 0   0 0 0 0 0   0 0 0 0 0  0 0 0 0.88 0" type="matrix" in="shadowBlurOuter1" result="shadowMatrixOuter1"></feColorMatrix>
            <feMerge>
                <feMergeNode in="shadowMatrixOuter1"></feMergeNode>
                <feMergeNode in="SourceGraphic"></feMergeNode>
            </feMerge>
        </filter>
    </defs>
    <g id="6.0-Student-Webapp" stroke="none" stroke-width="1" fill="none" fill-rule="evenodd" opacity="0.119999997">
        <g id="6.0-Student:-Portfolio---Performance---Modal-View-Media" transform="translate(-264.000000, -354.000000)" fill="#FFFFFF">
            <g id="Modal---Media-Player" transform="translate(249.000000, 290.000000)">
                <g id="Watermark-Logo" filter="url(#filter-1)" transform="translate(17.358166, 64.722656)">
                    <path d="M20.2193133,19.0186777 L17.6018184,26.1647508 C17.5505954,26.3053812 17.7363952,26.4087585 17.8290622,26.2909456 L19.3284989,24.3793967 C19.3676146,24.329105 19.4369985,24.3142038 19.4933438,24.3440062 L21.2689189,25.2762647 C21.3434251,25.3153804 21.4346952,25.275799 21.457047,25.1952392 L21.8337688,23.8387613 C21.8463417,23.7935919 21.8821978,23.7586671 21.9273672,23.7465599 L23.4864088,23.3386386 C23.5767475,23.3148898 23.6144663,23.2073215 23.558121,23.1323496 L20.4479541,18.98515 C20.3855552,18.9013305 20.2551694,18.9204227 20.2193133,19.0186777" id="Fill-1"></path>
                    <path d="M9.54020424,23.657525 L6.83795859,27.2971514 C6.75553614,27.408445 6.85751646,27.562114 6.9925589,27.5290519 C7.48429962,27.4075137 9.41354375,25.9159933 9.41354375,25.9159933 C9.41354375,25.9159933 10.6019172,26.2913181 11.1602478,25.9513837 C11.2324256,25.9071457 11.2510522,25.8107533 11.2035545,25.7409038 L9.78141797,23.6621816 C9.72414135,23.5783622 9.6007405,23.5760339 9.54020424,23.657525" id="Fill-3"></path>
                    <path d="M33.2290218,15.700918 L30.9938367,25.2931217 C30.9514614,25.5254878 31.2448294,25.6633242 31.3966357,25.4826468 L33.4376391,22.0223008 C33.5247182,21.9189235 33.6821125,21.9124042 33.7775735,22.0078653 L35.3068127,23.4924007 C35.4055333,23.5911214 35.5685156,23.5804111 35.6532663,23.4695832 L36.5468747,22.1820234 C36.6157929,22.0921504 36.7405908,22.0651419 36.8402428,22.1196245 L40.3699726,24.3990477 C40.7900011,24.6267571 41.209564,24.0977633 40.8924471,23.7405994 L33.4315855,15.645504 C33.3673239,15.5714635 33.2467171,15.6045256 33.2290218,15.700918" id="Fill-5"></path>
                    <path d="M6.15096514,7.25922926 C5.01893702,8.41919719 3.9879579,9.70023765 3.08689891,11.0618379 L3.08689891,11.0618379 C1.74671918,13.0870087 0.692456875,15.2891317 0.0186417015,17.5317674 C-0.0102294393,17.6272285 -0.00184749524,17.6803141 0.0186417015,18.1054649 L0.0186417015,31.7349717 C0.0186417015,33.6213748 1.02028402,35.2772744 2.51972069,36.2006853 C3.31740237,36.692426 4.25618011,36.9764808 5.25968509,36.9764808 L17.026072,36.9764808 C19.0014168,36.9764808 20.7881679,35.8849654 21.6901582,34.1270854 C22.0692083,33.3876117 22.7919182,32.9461626 23.6231276,32.9461626 C24.4548028,32.9461626 25.1770469,33.3876117 25.5565627,34.1270854 C26.4580874,35.8849654 28.2448385,36.9764808 30.2201833,36.9764808 L41.6205586,36.9764808 C43.114873,36.9764808 44.4639003,36.3469036 45.419442,35.3406047 C46.3125847,34.4004299 46.8620677,33.1310311 46.8620677,31.7349717 L46.8620677,20.5650999 C46.8695183,19.3334197 46.8695183,18.6102442 46.8620677,18.1725205 C46.8522887,17.5862501 46.8294712,17.5108126 46.7968748,17.4013816 C46.1225939,15.1703875 45.0972028,13.0017923 43.7933448,11.0082866 L43.7933448,11.0082866 C42.8969424,9.63737307 41.8673603,8.35121031 40.7260189,7.18565442 C39.9017944,6.34466602 39.0230873,5.56374823 38.0912945,4.8638559 C33.8542217,1.68197678 28.8017721,0 23.4792376,0 C18.1515808,0 13.0940088,1.68523643 8.85414212,4.8741005 C7.90372279,5.5884284 6.99940415,6.39030105 6.15096514,7.25922926 L6.15096514,7.25922926 Z M43.7933448,31.7349717 C43.7933448,32.9331241 42.818711,33.9077579 41.6205586,33.9077579 L30.2201833,33.9077579 C29.4015468,33.9077579 28.660676,33.4551329 28.2872139,32.7268351 C27.3856892,30.9694208 25.5984725,29.8774398 23.6231276,29.8774398 L23.6231276,29.8774398 C21.6482485,29.8774398 19.8610317,30.9694208 18.9595071,32.7263694 C18.5855792,33.4551329 17.8451742,33.9077579 17.026072,33.9077579 L5.25968509,33.9077579 C4.06153274,33.9077579 3.08689891,32.9331241 3.08689891,31.7349717 L3.08689891,28.1237508 C3.11064775,28.1679888 3.13393093,28.2122269 3.15814543,28.2569306 L3.15814543,28.1474996 L9.81853135,22.7253131 C10.1985128,23.3032016 10.4895525,23.7367344 10.6883909,24.0193922 C11.1261146,24.6401217 11.8362516,25.4680715 12.9510501,25.4871637 L12.9892345,25.4871637 C14.2032194,25.4871637 14.9613197,24.4859871 15.2509625,24.1032116 C15.9936958,23.1169362 16.8607614,22.0566203 17.6984901,21.0307634 C18.573472,19.9602029 19.475928,18.8561146 20.2805946,17.7855541 C20.2894422,17.7990583 20.2978241,17.8125626 20.3062061,17.8265325 C20.9073777,18.7848681 21.5169313,19.5196852 22.1618754,20.2973433 C22.4873742,20.6898977 22.8235833,21.0954907 23.1695713,21.544856 C23.5020551,22.038925 24.3295393,23.2240388 25.668322,23.2240388 L25.6916052,23.2240388 C27.0885959,23.2096032 27.9165457,21.9192495 28.2262119,21.4368221 C29.5398488,19.4000096 30.8939985,17.501965 32.3273109,15.492161 C32.5647993,15.1601429 32.8018221,14.8271935 33.0397762,14.4933127 L43.6773946,25.8247698 C43.7179073,25.7656305 43.7593514,25.7055599 43.7933448,25.6548026 L43.7933448,31.7349717 Z M13.1978518,5.70391296 C16.3266453,3.97536982 19.8293666,3.06872287 23.4792376,3.06872287 C27.1356279,3.06872287 30.6439371,3.97816381 33.7769216,5.71276057 C34.6374678,6.18913439 35.4710056,6.72418183 36.2700843,7.32395649 C39.8221659,9.99127737 42.4871585,13.7701372 43.7844972,17.9746135 C43.7877568,18.0211798 43.7910165,18.0803191 43.7933448,18.1487716 L43.7933448,18.1487716 L43.7933448,21.4647619 L33.8565501,10.8797634 L33.4886758,10.7568283 C32.7310412,10.503973 31.9287029,10.748912 31.4914448,11.3687102 C30.9368395,12.1580099 30.3817686,12.9361337 29.8294916,13.7100666 C28.4436768,15.652815 27.01083,17.6607562 25.6608714,19.7520513 C25.6604057,19.7515856 25.6604057,19.7506543 25.6594744,19.7501886 L25.6254809,19.7040879 C25.2366519,19.1979116 24.8743656,18.7606536 24.523721,18.3382967 C23.920221,17.6109302 23.3996091,16.9822844 22.9069371,16.1971757 C22.4217156,15.4223115 21.6892269,14.2516333 20.4002701,14.2013416 C19.1513604,14.1505843 18.375565,15.2039153 18.0021028,15.7086946 C17.1951078,16.7978817 16.2432915,17.9625062 15.3226746,19.0889464 C14.5408255,20.0454193 13.7347619,21.0316948 13.0097237,21.9807171 C12.7005231,21.5266951 12.2376536,20.8230775 11.6299626,19.8829027 C11.3305409,19.4186362 10.8490448,19.1173519 10.3088751,19.0568156 C9.80502711,18.9990733 9.3067671,19.1597272 8.92538864,19.4954707 L3.15814543,24.1907564 L3.15814543,23.8121719 C3.13486225,23.8307984 3.11064775,23.8489593 3.08689891,23.8675858 L3.08689891,21.7921233 L3.08689891,21.4931673 C3.10599111,21.49503 3.12508332,21.4968926 3.14417553,21.4987553 C3.12973996,19.8246948 3.1329996,18.4309638 3.16419906,18.0081412 C4.45641544,13.7948173 7.121408,10.0071099 10.677215,7.3328041 C11.4846756,6.72557882 12.3275266,6.18494342 13.1978518,5.70391296 L13.1978518,5.70391296 Z" id="Fill-7"></path>
                </g>
            </g>
        </g>
    </g>
</svg>