<?xml version="1.0" encoding="UTF-8"?>
<svg width="200px" height="41px" viewBox="0 0 200 41" version="1.1" xmlns="http://www.w3.org/2000/svg" xmlns:xlink="http://www.w3.org/1999/xlink">
    <!-- Generator: sketchtool 49.3 (51167) - http://www.bohemiancoding.com/sketch -->
    <title>68D14FE9-4616-46F9-AA7D-71D462CF9683</title>
    <desc>Created with sketchtool.</desc>
    <defs></defs>
    <g id="Mockups" stroke="none" stroke-width="1" fill="none" fill-rule="evenodd">
        <g id="Athlete---Performance-Summary---Nordic-P1:-Sun-Valley" transform="translate(-25.000000, -20.000000)" fill="#FFFFFF">
            <g id="Above-The-Fold">
                <g id="Logo" transform="translate(25.000000, 20.000000)">
                    <g id="Wordmark" transform="translate(64.367816, 13.793103)">
                        <path d="M125.835206,0.0368115421 C130.868476,0.0368115421 134.893677,4.08749701 134.893677,9.12076748 C134.893677,14.1526221 130.868476,18.1523378 125.835206,18.1523378 C120.803351,18.1523378 116.80222,14.1526221 116.80222,9.12076748 C116.80222,4.08749701 120.803351,0.0368115421 125.835206,0.0368115421 M125.835206,15.6364104 C129.434242,15.6364104 132.37775,12.7183878 132.37775,9.12076748 C132.37775,5.54721624 129.434242,2.55273886 125.835206,2.55273886 C122.263071,2.55273886 119.318147,5.54721624 119.318147,9.12076748 C119.318147,12.7183878 122.263071,15.6364104 125.835206,15.6364104" id="Fill-23"></path>
                        <path d="M109.329902,0.766529574 C109.329902,0.514512093 109.556434,0.287979526 109.808452,0.287979526 L111.469218,0.287979526 C111.71982,0.287979526 111.947768,0.514512093 111.947768,0.766529574 L111.947768,17.4237524 C111.947768,17.674354 111.71982,17.9008866 111.469218,17.9008866 L109.808452,17.9008866 C109.556434,17.9008866 109.329902,17.674354 109.329902,17.4237524 L109.329902,0.766529574 Z" id="Fill-21"></path>
                        <path d="M95.5166535,0.766529574 C95.5166535,0.514512093 95.7177011,0.287979526 95.9952035,0.287979526 L97.6559704,0.287979526 C97.9065721,0.287979526 98.1331046,0.514512093 98.1331046,0.766529574 L98.1331046,15.5619379 L104.953151,15.5619379 C105.229237,15.5619379 105.430285,15.7884704 105.430285,16.0390721 L105.430285,17.4237524 C105.430285,17.674354 105.229237,17.9008866 104.953151,17.9008866 L95.9952035,17.9008866 C95.7177011,17.9008866 95.5166535,17.674354 95.5166535,17.4237524 L95.5166535,0.766529574 Z" id="Fill-19"></path>
                        <path d="M81.6030232,0.0368115421 C86.6348779,0.0368115421 90.6614942,4.08749701 90.6614942,9.12076748 C90.6614942,14.1526221 86.6348779,18.1523378 81.6030232,18.1523378 C76.5711686,18.1523378 72.5700371,14.1526221 72.5700371,9.12076748 C72.5700371,4.08749701 76.5711686,0.0368115421 81.6030232,0.0368115421 M81.6030232,15.6364104 C85.2020594,15.6364104 88.1455669,12.7183878 88.1455669,9.12076748 C88.1455669,5.54721624 85.2020594,2.55273886 81.6030232,2.55273886 C78.0308878,2.55273886 75.0859644,5.54721624 75.0859644,9.12076748 C75.0859644,12.7183878 78.0308878,15.6364104 81.6030232,15.6364104" id="Fill-17"></path>
                        <path d="M58.3545522,0.766529574 C58.3545522,0.514512093 58.5555998,0.287979526 58.8316864,0.287979526 L68.8968115,0.287979526 C69.1743139,0.287979526 69.3753616,0.514512093 69.3753616,0.766529574 L69.3753616,2.17527898 C69.3753616,2.42729646 69.1743139,2.65382902 68.8968115,2.65382902 L60.9469343,2.65382902 L60.9469343,8.4658052 L67.6636249,8.4658052 C67.9156424,8.4658052 68.1421749,8.69233776 68.1421749,8.94435524 L68.1421749,10.3276197 C68.1421749,10.5796372 67.9156424,10.8061698 67.6636249,10.8061698 L60.9469343,10.8061698 L60.9469343,17.4237524 C60.9469343,17.674354 60.7189859,17.9008866 60.4683842,17.9008866 L58.8316864,17.9008866 C58.5555998,17.9008866 58.3545522,17.674354 58.3545522,17.4237524 L58.3545522,0.766529574 Z" id="Fill-15"></path>
                        <path d="M44.7175748,0.0368115421 C49.7494295,0.0368115421 53.77463,4.08749701 53.77463,9.12076748 C53.77463,14.1526221 49.7494295,18.1523378 44.7175748,18.1523378 C39.6857202,18.1523378 35.6845887,14.1526221 35.6845887,9.12076748 C35.6845887,4.08749701 39.6857202,0.0368115421 44.7175748,0.0368115421 M44.7175748,14.1271372 C47.4855196,14.1271372 49.7494295,11.8632274 49.7494295,9.12076748 C49.7494295,6.35282268 47.4855196,4.06201209 44.7175748,4.06201209 C41.9751149,4.06201209 39.7097893,6.35282268 39.7097893,9.12076748 C39.7097893,11.8632274 41.9751149,14.1271372 44.7175748,14.1271372" id="Fill-13"></path>
                        <path d="M16.2350688,0.489735093 C16.2350688,0.237717613 16.4616014,0.0366699593 16.7136189,0.0366699593 L17.3422468,0.0366699593 L27.381887,9.69828394 L27.4073719,9.69828394 L27.4073719,0.765821659 C27.4073719,0.515220007 27.6084195,0.28868744 27.8859219,0.28868744 L30.9044684,0.28868744 C31.1564859,0.28868744 31.3830184,0.515220007 31.3830184,0.765821659 L31.3830184,17.7005469 C31.3830184,17.9511485 31.1564859,18.153612 30.9044684,18.153612 L30.5023731,18.153612 C30.4259183,18.153612 30.2248707,18.0771573 30.1753167,18.0276033 L20.2362003,8.03751706 L20.2107154,8.03751706 L20.2107154,17.4230445 C20.2107154,17.675062 20.0096677,17.9015945 19.7321653,17.9015945 L16.737688,17.9015945 C16.4870863,17.9015945 16.2605538,17.675062 16.2605538,17.4230445 L16.2350688,0.489735093 Z" id="Fill-11"></path>
                        <path d="M0.208172886,15.5111096 L1.39038972,13.4227625 C1.5928532,13.0957061 2.06998742,13.1452601 2.24555016,13.2712689 C2.34748982,13.3222387 4.15833452,14.6559492 5.81910141,14.6559492 C6.8257555,14.6559492 7.5549072,14.0259055 7.5549072,13.1452601 C7.5549072,12.089052 6.67426185,11.2834456 4.96394097,10.6052637 C2.80055495,9.74868744 0.0821641458,8.06385147 0.0821641458,5.04388919 C0.0821641458,2.55344678 2.01901759,0.0375194564 5.89414032,0.0375194564 C8.5120073,0.0375194564 10.5238997,1.36981412 11.2785363,1.92340308 C11.5815236,2.10038165 11.5305538,2.55344678 11.4300299,2.72900952 L10.1472893,4.66586297 C9.97172653,4.94336536 9.51724556,5.16989793 9.29212882,4.99291936 C9.06418043,4.86832645 7.22785081,3.48364613 5.69309267,3.48364613 C4.7869624,3.48364613 4.1073647,4.08820492 4.1073647,4.76780262 C4.1073647,5.69800198 4.86341714,6.40308459 6.84982459,7.2072752 C8.81357878,7.98739673 11.9326491,9.52215487 11.9326491,12.9442125 C11.9326491,15.5365945 9.69422413,18.1530457 5.99466415,18.1530457 C2.72410021,18.1530457 0.913255501,16.7938503 0.334181627,16.2161922 C0.0821641458,15.9641747 0.00712523297,15.8636509 0.208172886,15.5111096" id="Fill-9"></path>
                    </g>
                    <g id="Icon">
                        <path d="M22.2364796,20.9160635 L19.3578521,28.7750597 C19.3015189,28.92972 19.5058548,29.0434107 19.6077668,28.9138443 L21.2567937,26.811591 C21.2998118,26.756282 21.3761177,26.7398942 21.4380843,26.7726699 L23.3907985,27.7979344 C23.4727377,27.8409525 23.5731133,27.7974223 23.5976951,27.7088255 L24.0120003,26.2170195 C24.0258275,26.1673438 24.0652608,26.1289348 24.1149364,26.1156197 L25.8295148,25.6670024 C25.9288661,25.6408843 25.9703478,25.5225845 25.9083813,25.4401332 L22.4879306,20.8791909 C22.4193065,20.7870092 22.2759129,20.8080061 22.2364796,20.9160635" id="Fill-1"></path>
                        <path d="M10.4919764,26.0177023 L7.52014299,30.0204336 C7.42949772,30.1428303 7.54165204,30.31183 7.69016689,30.2754694 C8.2309658,30.1418061 10.3526797,28.5014851 10.3526797,28.5014851 C10.3526797,28.5014851 11.6596104,28.914254 12.2736425,28.5404063 C12.3530211,28.4917549 12.3735059,28.385746 12.3212697,28.308928 L10.7572546,26.0228235 C10.6942639,25.9306419 10.558552,25.9280813 10.4919764,26.0177023" id="Fill-3"></path>
                        <path d="M36.5440931,17.2673097 L34.0859163,27.8164732 C34.0393134,28.0720212 34.3619491,28.2236087 34.5289002,28.0249061 L36.773523,24.2193411 C36.8692895,24.1056504 37.0423861,24.0984807 37.1473707,24.2034653 L38.8291734,25.8361045 C38.9377429,25.944674 39.1169849,25.9328952 39.2101908,25.8110106 L40.1929494,24.3949983 C40.2687432,24.2961591 40.4059914,24.2664561 40.5155851,24.3263742 L44.3974561,26.8332025 C44.8593885,27.0836292 45.3208088,26.5018607 44.9720549,26.1090645 L36.7668654,17.2063674 C36.6961928,17.1249403 36.5635537,17.1613008 36.5440931,17.2673097" id="Fill-5"></path>
                        <path d="M6.7646121,7.98344145 C5.51964794,9.25913281 4.38581387,10.6679754 3.39486133,12.1654148 L3.39486133,12.1654148 C1.92097946,14.3926255 0.761539375,16.8144418 0.0205014784,19.2808126 C-0.0112499726,19.3857972 -0.00203180938,19.4441789 0.0205014784,19.9117446 L0.0205014784,34.9009901 C0.0205014784,36.9755889 1.12207198,38.7966883 2.77109895,39.8122226 C3.64836082,40.3530215 4.68079509,40.6654148 5.78441408,40.6654148 L18.7246667,40.6654148 C20.8970805,40.6654148 22.8620856,39.4650051 23.8540624,37.5317515 C24.2709282,36.7185046 25.0657388,36.2330147 25.9798733,36.2330147 C26.8945199,36.2330147 27.6888183,36.7185046 28.1061963,37.5317515 C29.0976609,39.4650051 31.062666,40.6654148 33.2350798,40.6654148 L45.772806,40.6654148 C47.4161997,40.6654148 48.8998118,39.9730283 49.9506824,38.8663366 C50.9329289,37.832366 51.5372307,36.4363264 51.5372307,34.9009901 L51.5372307,22.6167634 C51.5454247,21.2622055 51.5454247,20.4668829 51.5372307,19.9854899 C51.5264762,19.3407306 51.5013823,19.2577672 51.4655339,19.1374189 C50.7239839,16.6838511 49.5962953,14.2989075 48.1623588,12.106521 L48.1623588,12.106521 C47.1765274,10.5988392 46.0442297,9.18436326 44.7890232,7.90252646 C43.8825704,6.97763742 42.9161997,6.11881188 41.8914472,5.34909525 C37.2316657,1.84977808 31.6751618,0 25.8216281,0 C19.9624612,0 14.4003239,1.85336292 9.73746973,5.3603619 C8.69223244,6.14595425 7.69769506,7.0278252 6.7646121,7.98344145 L6.7646121,7.98344145 Z M48.1623588,34.9009901 C48.1623588,36.2186753 47.0904912,37.2905428 45.772806,37.2905428 L33.2350798,37.2905428 C32.3347726,37.2905428 31.5199894,36.792762 31.109269,35.9918061 C30.1178043,34.0590645 28.1522871,32.8581427 25.9798733,32.8581427 L25.9798733,32.8581427 C23.8079716,32.8581427 21.8424544,34.0590645 20.8509897,35.991294 C20.4397572,36.792762 19.6254861,37.2905428 18.7246667,37.2905428 L5.78441408,37.2905428 C4.46672886,37.2905428 3.39486133,36.2186753 3.39486133,34.9009901 L3.39486133,30.9294981 C3.42097946,30.9781495 3.44658547,31.026801 3.47321572,31.0759645 L3.47321572,30.9556163 L10.7980706,24.9924889 C11.2159607,25.62803 11.5360358,26.1048139 11.7547111,26.4156709 C12.2361041,27.0983271 13.0170873,28.0088767 14.243103,28.0298737 L14.2850969,28.0298737 C15.6201942,28.0298737 16.4539259,26.9288153 16.7724646,26.5078525 C17.5892963,25.423182 18.5428641,24.2570843 19.4641683,23.1288836 C20.4264421,21.9515193 21.418931,20.7372823 22.3038746,19.5599181 C22.3136049,19.5747695 22.3228231,19.589621 22.3320413,19.6049846 C22.9931884,20.658928 23.6635537,21.4670536 24.3728402,22.3222943 C24.7308122,22.7540116 25.1005629,23.2000683 25.4810682,23.6942643 C25.846722,24.2376238 26.7567596,25.5409696 28.2291051,25.5409696 L28.2547111,25.5409696 C29.7910716,25.5250939 30.7016213,24.1060089 31.0421812,23.5754524 C32.4868723,21.3354387 33.9761177,19.2480369 35.5524236,17.0377262 C35.8136049,16.6725845 36.0742741,16.3064186 36.3359675,15.9392284 L48.0348408,28.4011608 C48.0793953,28.3361215 48.124974,28.270058 48.1623588,28.2142369 L48.1623588,34.9009901 Z M14.5145267,6.27296005 C17.9554622,4.37196996 21.8076302,3.37487197 25.8216281,3.37487197 C29.8427958,3.37487197 33.7011092,4.37504268 37.1466537,6.28269034 C38.0930518,6.80658928 39.009747,7.39501536 39.8885452,8.05462615 C43.7949979,10.9880505 46.7258617,15.1439058 48.1526285,19.7678389 C48.1562133,19.8190509 48.1597982,19.8840901 48.1623588,19.9593718 L48.1623588,19.9593718 L48.1623588,23.6061796 L37.2342263,11.9651758 L36.8296514,11.8299761 C35.9964318,11.5518948 35.1140488,11.8212701 34.6331679,12.502902 C34.0232328,13.3709457 33.4127855,14.2266985 32.805411,15.0778423 C31.2813414,17.2144076 29.7055476,19.4226699 28.2209112,21.7226016 C28.2203991,21.7220895 28.2203991,21.7210652 28.2193748,21.7205531 L28.18199,21.6698532 C27.7543697,21.1131786 27.3559402,20.6322977 26.9703137,20.1678047 C26.306606,19.367873 25.7340556,18.6765108 25.1922324,17.8130761 C24.6586032,16.9609082 23.8530382,15.673438 22.4354895,15.6181291 C21.0619832,15.562308 20.208791,16.7207238 19.7980706,17.2758621 C18.9105663,18.4737112 17.8637927,19.7545237 16.8513311,20.9933424 C15.9914813,22.0452373 15.1050013,23.1299078 14.3076302,24.1736087 C13.9675824,23.6742916 13.4585349,22.900478 12.7902181,21.8665073 C12.4609248,21.3559235 11.9313926,21.0245818 11.3373332,20.9580061 C10.7832191,20.8945032 10.2352505,21.0711847 9.81582411,21.4404234 L3.47321572,26.6041311 L3.47321572,26.1877774 C3.44760971,26.2082622 3.42097946,26.2282349 3.39486133,26.2487197 L3.39486133,23.9662001 L3.39486133,23.6374189 C3.41585826,23.6394674 3.43685518,23.6415159 3.45785211,23.6435644 C3.44197638,21.8024923 3.44556123,20.2697166 3.47987328,19.8047115 C4.90100677,15.1710481 7.83187055,11.0054626 11.7424202,8.06435644 C12.6304366,7.39655172 13.5573741,6.8019802 14.5145267,6.27296005 L14.5145267,6.27296005 Z" id="Fill-7"></path>
                    </g>
                </g>
            </g>
        </g>
    </g>
</svg>