<?xml version="1.0" encoding="UTF-8"?>
<svg width="28px" height="28px" viewBox="0 0 28 28" version="1.1" xmlns="http://www.w3.org/2000/svg" xmlns:xlink="http://www.w3.org/1999/xlink">
    <!-- Generator: sketchtool 61 (101010) - https://sketch.com -->
    <title>2D56A622-753A-4F14-8C9A-8BF02F96C7B1</title>
    <desc>Created with sketchtool.</desc>
    <g id="6.1---Instructor-iPad" stroke="none" stroke-width="1" fill="none" fill-rule="evenodd" stroke-linecap="round">
        <g id="7.0-Logout---Navbar-alternative" transform="translate(-353.000000, -970.000000)" stroke="#FFFFFF">
            <g id="Logout-Icon" transform="translate(354.000000, 971.000000)">
                <path d="M8.5,8 L14.267094,13.3488176 C14.4886721,13.5543251 14.565654,14.0124661 14.439038,14.3721042 C14.3981021,14.4883777 14.3387317,14.5847404 14.267094,14.6511824 L8.5,20 L8.5,20" id="Path"></path>
                <path d="M0,6 C0,2.6862915 2.6862915,0 6,0 L20,0 C23.3137085,0 26,2.6862915 26,6 L26,20 C26,23.3137085 23.3137085,26 20,26 L6,26 C2.6862915,26 0,23.3137085 0,20" id="Path"></path>
                <line x1="-1.11022302e-16" y1="14" x2="14.5" y2="14" id="Line-3"></line>
            </g>
        </g>
    </g>
</svg>