<?xml version="1.0" encoding="UTF-8"?>
<svg width="37px" height="30px" viewBox="0 0 37 30" version="1.1" xmlns="http://www.w3.org/2000/svg" xmlns:xlink="http://www.w3.org/1999/xlink">
    <!-- Generator: sketchtool 52.5 (67469) - http://www.bohemiancoding.com/sketch -->
    <title>5BBBF4F3-38C7-45F4-98F9-4BC309BB6A43</title>
    <desc>Created with sketchtool.</desc>
    <g id="Student-Mobile-Webapp" stroke="none" stroke-width="1" fill="none" fill-rule="evenodd">
        <g id="5.1:-Student:-Portfolio---Performance-(320px-576px)" transform="translate(-10.000000, -78.000000)" fill="#FFFFFF">
            <g id="Navigation" transform="translate(0.000000, 64.000000)">
                <g id="Icon" transform="translate(10.666667, 14.960000)">
                    <path d="M15.5912312,14.6654141 L13.5728656,20.175793 C13.5333672,20.2842339 13.6766385,20.3639488 13.7480946,20.2731026 L14.904319,18.799096 C14.9344814,18.7603158 14.9879837,18.7488253 15.0314319,18.7718062 L16.4005883,19.4906762 C16.4580405,19.5208385 16.5284193,19.4903171 16.545655,19.428197 L16.8361474,18.3822088 C16.8458424,18.3473785 16.8734913,18.3204478 16.9083217,18.3111118 L18.1105078,17.9965613 C18.1801685,17.9782484 18.2092537,17.8953019 18.1658055,17.8374907 L15.7675375,14.6395607 C15.7194213,14.574927 15.6188801,14.5896491 15.5912312,14.6654141" id="Fill-1"></path>
                    <path d="M7.35650753,18.2424565 L5.27279004,21.0489938 C5.2092336,21.1348129 5.28787123,21.253308 5.39200324,21.2278136 C5.7711874,21.1340948 7.25883888,19.9839747 7.25883888,19.9839747 C7.25883888,19.9839747 8.1752006,20.2733898 8.60573261,20.0112644 C8.66138938,19.9771522 8.67575242,19.9028235 8.63912667,19.8489621 L7.54250885,18.2460473 C7.49834251,18.1814136 7.4031874,18.1796182 7.35650753,18.2424565" id="Fill-3"></path>
                    <path d="M25.6230939,12.1070701 L23.8995296,19.5036747 C23.8668537,19.6828536 24.0930715,19.7891401 24.2101302,19.6498186 L25.7839599,16.9815255 C25.8511071,16.9018107 25.9724748,16.8967836 26.0460854,16.9703942 L27.2252906,18.1151282 C27.3014147,18.1912523 27.4270913,18.1829935 27.4924431,18.0975335 L28.1815098,17.1046886 C28.234653,17.0353869 28.3308854,17.0145605 28.4077276,17.0565724 L31.129523,18.814249 C31.4534094,18.9898371 31.7769368,18.5819269 31.5324061,18.3065156 L25.779292,12.0643401 C25.7297395,12.007247 25.6367388,12.0327414 25.6230939,12.1070701" id="Fill-5"></path>
                    <path d="M4.74304535,5.59763432 C3.87013182,6.49209241 3.07513776,7.47991023 2.38032588,8.52984818 L2.38032588,8.52984818 C1.34690542,10.0914693 0.533957564,11.7895393 0.0143747255,13.5188488 C-0.00788798077,13.5924594 -0.00142461443,13.6333941 0.0143747255,13.9612304 L0.0143747255,24.4710231 C0.0143747255,25.9256396 0.786747003,27.2025135 1.94297143,27.9145611 C2.55806845,28.2937452 3.28196548,28.5127815 4.05577407,28.5127815 L13.1289041,28.5127815 C14.6521041,28.5127815 16.0298784,27.6711076 16.7254084,26.315596 C17.0176962,25.7453835 17.574982,25.4049795 18.2159325,25.4049795 C18.8572421,25.4049795 19.4141688,25.7453835 19.7068156,26.315596 C20.4019866,27.6711076 21.7797609,28.5127815 23.3029609,28.5127815 L32.0938572,28.5127815 C33.2461318,28.5127815 34.2863747,28.0273109 35.0231985,27.2513479 C35.7119061,26.5263736 36.1356156,25.5475327 36.1356156,24.4710231 L36.1356156,15.8578693 C36.1413609,14.9081135 36.1413609,14.3504686 36.1356156,14.0129373 C36.1280751,13.5608607 36.1104803,13.5026904 36.085345,13.4183076 C35.5654031,11.6979749 34.774718,10.0257584 33.7693054,8.48855446 L33.7693054,8.48855446 C33.0780843,7.43143498 32.2841675,6.43966733 31.4040724,5.54090033 C30.7685081,4.89240924 30.0909318,4.29023894 29.3724209,3.75054785 C26.1051892,1.29698218 22.2092156,0 18.104978,0 C13.9967906,0 10.0968671,1.29949571 6.827481,3.75844752 C6.09460707,4.30926997 5.39728166,4.92759868 4.74304535,5.59763432 L4.74304535,5.59763432 Z M33.7693054,24.4710231 C33.7693054,25.3949254 33.0177595,26.1464713 32.0938572,26.1464713 L23.3029609,26.1464713 C22.6717054,26.1464713 22.1004156,25.7974495 21.8124368,25.2358548 C21.1172658,23.8807023 19.7391325,23.0386693 18.2159325,23.0386693 L18.2159325,23.0386693 C16.6930916,23.0386693 15.3149582,23.8807023 14.6197873,25.2354957 C14.3314493,25.7974495 13.7605186,26.1464713 13.1289041,26.1464713 L4.05577407,26.1464713 C3.13187176,26.1464713 2.38032588,25.3949254 2.38032588,24.4710231 L2.38032588,21.6863894 C2.39863875,21.7205017 2.41659255,21.7546139 2.43526449,21.7890851 L2.43526449,21.7047023 L7.5711272,17.5236224 C7.86413314,17.9692356 8.08855558,18.3035353 8.241881,18.5214944 C8.57941235,19.0001426 9.12700311,19.6385795 9.98663083,19.6533017 L10.0160751,19.6533017 C10.9521859,19.6533017 11.5367615,18.8812884 11.7601067,18.5861281 C12.3328328,17.8256053 13.0014322,17.0079894 13.6474097,16.2169452 C14.3221133,15.3914297 15.0180024,14.5400607 15.6384856,13.7145452 C15.6453081,13.7249584 15.6517714,13.7353716 15.6582348,13.7461439 C16.1218018,14.4851221 16.5918322,15.0517439 17.0891523,15.6514007 C17.3401463,15.9541017 17.5993991,16.2668568 17.8661925,16.613365 C18.1225727,16.9943446 18.7606506,17.9081927 19.7929939,17.9081927 L19.8109477,17.9081927 C20.8881754,17.8970614 21.5266123,16.902062 21.7653978,16.5300594 C22.778351,14.9594614 23.8225437,13.495868 24.9277793,11.9460964 C25.1109081,11.6900752 25.2936777,11.433336 25.4771655,11.1758785 L33.6798955,19.9136317 C33.7111351,19.868029 33.7430929,19.8217083 33.7693054,19.782569 L33.7693054,24.4710231 Z M10.1769411,4.39832079 C12.5895721,3.06543102 15.2905411,2.36631023 18.104978,2.36631023 C20.9244421,2.36631023 23.6297199,3.06758548 26.0455826,4.40514323 C26.7091549,4.77247789 27.3519008,5.18505611 27.9680751,5.64754587 C30.7071061,7.70433267 32.7620975,10.6182337 33.762483,13.86033 C33.7649965,13.8962376 33.76751,13.9418403 33.7693054,13.9946244 L33.7693054,13.9946244 L33.7693054,16.551604 L26.1069846,8.3894495 L25.8233147,8.29465347 C25.2390982,8.09967525 24.6204104,8.28854917 24.2832381,8.76647921 C23.8555787,9.37511287 23.4275602,9.97512871 23.0016962,10.5719129 C21.9330863,12.0699776 20.8282097,13.6183129 19.7872487,15.2309228 C19.7868896,15.2305637 19.7868896,15.2298455 19.7861714,15.2294865 L19.7599589,15.193938 C19.4601305,14.8036224 19.1807694,14.4664502 18.9103853,14.1407683 C18.4450229,13.5798917 18.043576,13.0951393 17.6636737,12.4897373 C17.2895166,11.892235 16.7246902,10.9895182 15.7307681,10.950738 C14.7677265,10.9115987 14.1695061,11.7238284 13.8815272,12.1130667 C13.2592487,12.9529452 12.5252975,13.8509941 11.8154044,14.7195987 C11.212516,15.4571406 10.5909556,16.2176634 10.0318744,16.9494601 C9.79344799,16.5993611 9.43652654,16.0567974 8.96793248,15.3318231 C8.73704667,14.9738244 8.36576218,14.7415023 7.94923413,14.6948224 C7.560714,14.650297 7.17650278,14.7741782 6.88241961,15.0330719 L2.43526449,18.6536343 L2.43526449,18.3617056 C2.4173107,18.3760686 2.39863875,18.3900726 2.38032588,18.4044356 L2.38032588,16.8040343 L2.38032588,16.5735076 C2.39504799,16.5749439 2.40977011,16.5763802 2.42449222,16.5778165 C2.41336086,15.2869386 2.4158744,14.2122244 2.43993248,13.8861835 C3.43636812,10.6372647 5.49135954,7.71654125 8.23326317,5.65436832 C8.8559008,5.18613333 9.50582819,4.7692462 10.1769411,4.39832079 L10.1769411,4.39832079 Z" id="Fill-7"></path>
                </g>
            </g>
        </g>
    </g>
</svg>