<?xml version="1.0" encoding="UTF-8"?>
<svg width="21px" height="21px" viewBox="0 0 21 21" version="1.1" xmlns="http://www.w3.org/2000/svg" xmlns:xlink="http://www.w3.org/1999/xlink">
    <!-- Generator: sketchtool 52.2 (67145) - http://www.bohemiancoding.com/sketch -->
    <title>10B756B1-3309-4815-9F68-4AD8C225A748</title>
    <desc>Created with sketchtool.</desc>
    <g id="6.0-Student-Webapp" stroke="none" stroke-width="1" fill="none" fill-rule="evenodd" opacity="0.5">
        <g id="5.1-Student:-Lesson-Summary-(Not-Logged-In)" transform="translate(-322.000000, -1765.000000)" fill="#4A4A4A" fill-rule="nonzero">
            <g id="Lesson" transform="translate(103.000000, 1655.000000)">
                <g id="01">
                    <g id="Card-Shape">
                        <g id="Body-Language" transform="translate(83.000000, 110.000000)">
                            <g id="tooltip/right/default" transform="translate(136.000000, 0.000000)">
                                <g id="help-circle-outline" transform="translate(0.232019, 0.280702)">
                                    <path d="M10,1.34615385 C12.3125,1.34615385 14.4855769,2.24519231 16.1201923,3.87980769 C17.7548077,5.51442308 18.6538462,7.6875 18.6538462,10 C18.6538462,12.3125 17.7548077,14.4855769 16.1201923,16.1201923 C14.4855769,17.7548077 12.3125,18.6538462 10,18.6538462 C7.6875,18.6538462 5.51442308,17.7548077 3.87980769,16.1201923 C2.24519231,14.4855769 1.34615385,12.3125 1.34615385,10 C1.34615385,7.6875 2.24519231,5.51442308 3.87980769,3.87980769 C5.51442308,2.24519231 7.6875,1.34615385 10,1.34615385 Z M10,0 C4.47596154,0 0,4.47596154 0,10 C0,15.5240385 4.47596154,20 10,20 C15.5240385,20 20,15.5240385 20,10 C20,4.47596154 15.5240385,0 10,0 Z" id="Shape"></path>
                                    <path d="M10.0336538,5.38461538 C11.8365385,5.38461538 13.0769231,6.38461538 13.0769231,7.82211538 C13.0769231,8.77403846 12.6153846,9.43269231 11.7259615,9.95673077 C10.8894231,10.4423077 10.6057692,10.7980769 10.6057692,11.4134615 L10.6057692,11.7932692 L8.9375,11.7932692 L8.92307692,11.3798077 C8.84134615,10.3894231 9.1875,9.77403846 10.0576923,9.26442308 C10.8701923,8.77884615 11.2115385,8.47115385 11.2115385,7.875 C11.2115385,7.27884615 10.6346154,6.84134615 9.91826923,6.84134615 C9.19230769,6.84134615 8.66826923,7.3125 8.62980769,8.02403846 L6.92307692,8.02403846 C6.95673077,6.47596154 8.10096154,5.38461538 10.0336538,5.38461538 Z M8.76923077,13.625 C8.76923077,13.0721154 9.23076923,12.6346154 9.79807692,12.6346154 C10.3701923,12.6346154 10.8317308,13.0673077 10.8317308,13.625 C10.8317308,14.1826923 10.3701923,14.6153846 9.79807692,14.6153846 C9.22596154,14.6153846 8.76923077,14.1826923 8.76923077,13.625 Z" id="Shape"></path>
                                </g>
                            </g>
                        </g>
                    </g>
                </g>
            </g>
        </g>
    </g>
</svg>