<?xml version="1.0" encoding="UTF-8"?>
<svg width="161px" height="36px" viewBox="0 0 161 36" version="1.1" xmlns="http://www.w3.org/2000/svg" xmlns:xlink="http://www.w3.org/1999/xlink">
    <!-- Generator: sketchtool 49.3 (51167) - http://www.bohemiancoding.com/sketch -->
    <title>52449DAF-8AA7-4C65-B845-551C1F5F5DC4</title>
    <desc>Created with sketchtool.</desc>
    <defs></defs>
    <g id="Admin-Webapp-MASTER" stroke="none" stroke-width="1" fill="none" fill-rule="evenodd">
        <g id="Admin---Members---List" transform="translate(-25.000000, -15.000000)">
            <g id="Navigation">
                <g id="Logo" transform="translate(25.000000, 15.000000)">
                    <g id="Wordmark" transform="translate(54.422535, 12.375000)">
                        <path d="M94.5129293,17.2325716 L94.5129293,0.814971552 C94.5129293,0.566971552 94.708716,0.343771552 94.9779228,0.343771552 L100.557845,0.343771552 C103.568066,0.343771552 106.039874,2.82377155 106.039874,5.82457155 C106.039874,8.89977155 103.568066,11.4045716 100.582319,11.4045716 L97.0336837,11.4045716 L97.0336837,17.2325716 C97.0336837,17.4805716 96.8134236,17.7037716 96.5686902,17.7037716 L94.9779228,17.7037716 C94.708716,17.7037716 94.5129293,17.4805716 94.5129293,17.2325716 Z M97.0336837,8.97417155 L100.411005,8.97417155 C102.099666,8.97417155 103.51912,7.58537155 103.51912,5.79977155 C103.51912,4.11337155 102.099666,2.82377155 100.411005,2.82377155 L97.0336837,2.82377155 L97.0336837,8.97417155 Z" id="P" fill="#69ADD3"></path>
                        <path d="M74.8718867,17.7037716 C74.5047865,17.7037716 74.3089998,17.3813716 74.4558398,17.0589716 L81.9691564,0.368571552 C82.0425764,0.219771552 82.2628365,0.0957715517 82.3852032,0.0957715517 L82.6299367,0.0957715517 C82.7523034,0.0957715517 82.9725635,0.219771552 83.0459835,0.368571552 L90.5103534,17.0589716 C90.6571934,17.3813716 90.4614067,17.7037716 90.0943065,17.7037716 L88.5524859,17.7037716 C88.2588057,17.7037716 88.0874923,17.5549716 87.989599,17.3317716 L86.4722516,13.9341716 L78.4694682,13.9341716 C77.9800014,15.0749716 77.4660611,16.1909716 76.9765943,17.3317716 C76.9031742,17.5053716 76.7073875,17.7037716 76.4137073,17.7037716 L74.8718867,17.7037716 Z M79.4239286,11.8013716 L85.5422646,11.8013716 L82.5320433,5.00617155 L82.4096766,5.00617155 L79.4239286,11.8013716 Z" id="Combined-Shape" fill="#69ADD3"></path>
                        <path d="M56.9195048,9.04857155 C56.9195048,4.08857155 60.8597132,0.0957715517 65.7543819,0.0957715517 C68.2261896,0.0957715517 70.0127437,0.938971552 71.6769311,2.40217155 C71.8971912,2.60057155 71.8971912,2.89817155 71.7014045,3.09657155 L70.6245773,4.21257155 C70.4532639,4.43577155 70.2330038,4.43577155 70.0127437,4.21257155 C68.8624966,3.19577155 67.2962026,2.55097155 65.7788553,2.55097155 C62.2791671,2.55097155 59.636046,5.52697155 59.636046,8.99897155 C59.636046,12.4709716 62.3036405,15.4221716 65.8033286,15.4221716 C67.5898827,15.4221716 68.8380232,14.7029716 70.0127437,13.7853716 C70.2330038,13.6117716 70.4532639,13.6365716 70.600104,13.7605716 L71.7258778,14.8765716 C71.9216646,15.0501716 71.8727179,15.3725716 71.7014045,15.5461716 C70.0372171,17.1829716 67.9325095,17.9517716 65.7543819,17.9517716 C60.8597132,17.9517716 56.9195048,14.0085716 56.9195048,9.04857155 Z" id="Path" fill="#69ADD3"></path>
                        <path d="M44.1285718,0.0368115421 C49.0941488,0.0368115421 53.0663309,4.08749701 53.0663309,9.12076748 C53.0663309,14.1526221 49.0941488,18.1523378 44.1285718,18.1523378 C39.1629949,18.1523378 35.2145648,14.1526221 35.2145648,9.12076748 C35.2145648,4.08749701 39.1629949,0.0368115421 44.1285718,0.0368115421 M44.1285718,14.1271372 C46.8600583,14.1271372 49.0941488,11.8632274 49.0941488,9.12076748 C49.0941488,6.35282268 46.8600583,4.06201209 44.1285718,4.06201209 C41.4222346,4.06201209 39.1867469,6.35282268 39.1867469,9.12076748 C39.1867469,11.8632274 41.4222346,14.1271372 44.1285718,14.1271372" id="Fill-13" fill="#FFFFFF"></path>
                        <path d="M16.0212266,0.489735093 C16.0212266,0.237717613 16.2447754,0.0366699593 16.4934734,0.0366699593 L17.1138212,0.0366699593 L27.0212231,9.69828394 L27.0463723,9.69828394 L27.0463723,0.765821659 C27.0463723,0.515220007 27.2447719,0.28868744 27.5186191,0.28868744 L30.4974064,0.28868744 C30.7461044,0.28868744 30.9696532,0.515220007 30.9696532,0.765821659 L30.9696532,17.7005469 C30.9696532,17.9511485 30.7461044,18.153612 30.4974064,18.153612 L30.1006073,18.153612 C30.0251596,18.153612 29.8267601,18.0771573 29.7778588,18.0276033 L19.9696567,8.03751706 L19.9445075,8.03751706 L19.9445075,17.4230445 C19.9445075,17.675062 19.746108,17.9015945 19.4722607,17.9015945 L16.5172255,17.9015945 C16.2699246,17.9015945 16.0463759,17.675062 16.0463759,17.4230445 L16.0212266,0.489735093 Z" id="Fill-11" fill="#FFFFFF"></path>
                        <path d="M0.205430912,15.5111096 L1.37207603,13.4227625 C1.57187274,13.0957061 2.04272233,13.1452601 2.21597262,13.2712689 C2.31656957,13.3222387 4.10356251,14.6559492 5.7424544,14.6559492 C6.73584923,14.6559492 7.45539682,14.0259055 7.45539682,13.1452601 C7.45539682,12.089052 6.58635099,11.2834456 4.89855781,10.6052637 C2.7636671,9.74868744 0.0810819107,8.06385147 0.0810819107,5.04388919 C0.0810819107,2.55344678 1.99242386,0.0375194564 5.81650493,0.0375194564 C8.39989035,0.0375194564 10.3852828,1.36981412 11.1299797,1.92340308 C11.4289761,2.10038165 11.3786777,2.55344678 11.2794779,2.72900952 L10.013633,4.66586297 C9.84038271,4.94336536 9.391888,5.16989793 9.16973641,4.99291936 C8.94479047,4.86832645 7.13264829,3.48364613 5.6181054,3.48364613 C4.72391034,3.48364613 4.05326404,4.08820492 4.05326404,4.76780262 C4.05326404,5.69800198 4.79935805,6.40308459 6.75960128,7.2072752 C8.69748965,7.98739673 11.7754767,9.52215487 11.7754767,12.9442125 C11.7754767,15.5365945 9.56653547,18.1530457 5.91570469,18.1530457 C2.68821939,18.1530457 0.901226445,16.7938503 0.329779912,16.2161922 C0.0810819107,15.9641747 0.0070313821,15.8636509 0.205430912,15.5111096" id="Fill-9" fill="#FFFFFF"></path>
                    </g>
                    <g id="Icon" fill="#FFFFFF">
                        <path d="M19.8426072,18.4553501 L17.2738789,25.3897586 C17.2236102,25.5262236 17.4059483,25.6265389 17.4968889,25.5122156 L18.9683896,23.6572862 C19.0067765,23.6084841 19.0748677,23.5940243 19.1301632,23.622944 L20.8726576,24.5275892 C20.9457757,24.5655464 21.0353453,24.5271373 21.0572807,24.4489637 L21.4269838,23.1326642 C21.4393225,23.0888328 21.4745106,23.0549425 21.5188384,23.0431938 L23.0488335,22.647355 C23.1374891,22.6243096 23.1745051,22.5199275 23.1192096,22.4471763 L20.0669882,18.4228155 C20.0057518,18.3414787 19.8777952,18.3600054 19.8426072,18.4553501" id="Fill-1"></path>
                        <path d="M9.36246067,22.9567961 L6.71056057,26.4886179 C6.62967373,26.596615 6.72975406,26.7457323 6.86228051,26.7136495 C7.34485961,26.5957112 9.23815999,25.1483692 9.23815999,25.1483692 C9.23815999,25.1483692 10.4043928,25.5125771 10.9523212,25.1827114 C11.0231543,25.1397837 11.0414338,25.0462465 10.994821,24.9784658 L9.59918034,22.9613148 C9.54297084,22.8799781 9.42186908,22.8777188 9.36246067,22.9567961" id="Fill-3"></path>
                        <path d="M32.6099318,15.2358615 L30.4163905,24.5439469 C30.3748046,24.7694304 30.6627069,24.9031842 30.8116849,24.7278583 L32.8146624,21.3700068 C32.9001191,21.2696915 33.054581,21.2633653 33.1482634,21.3559988 L34.6490113,22.7965628 C34.7458927,22.8923594 34.9058385,22.8819663 34.9890102,22.7744211 L35.8659698,21.5249985 C35.933604,21.4377874 36.0560767,21.4115789 36.1538721,21.4644478 L39.6178395,23.6763551 C40.0300425,23.8973199 40.4417885,23.3839947 40.1305798,23.0374099 L32.8087215,15.1820888 C32.7456572,15.1102414 32.6272974,15.1423242 32.6099318,15.2358615" id="Fill-5"></path>
                        <path d="M6.03636649,7.04421304 C4.92542919,8.16982307 3.91365824,9.41291949 3.02938689,10.7341895 L3.02938689,10.7341895 C1.71417605,12.6993754 0.679555709,14.8362722 0.0182943879,17.0124817 C-0.0100388546,17.1051152 -0.00181307455,17.1566284 0.0182943879,17.5691864 L0.0182943879,30.7949913 C0.0182943879,32.6255197 1.00127511,34.232372 2.47277577,35.1284317 C3.25559584,35.6056072 4.17688321,35.8812484 5.16169188,35.8812484 L16.7088592,35.8812484 C18.6474013,35.8812484 20.4008635,34.8220633 21.2860488,33.1162513 C21.6580368,32.3986805 22.3672819,31.9703071 23.1830051,31.9703071 C23.9991853,31.9703071 24.7079733,32.3986805 25.0804183,33.1162513 C25.9651467,34.8220633 27.7186088,35.8812484 29.657151,35.8812484 L40.8451259,35.8812484 C42.3115997,35.8812484 43.6354933,35.2703191 44.5732322,34.2938264 C45.4497348,33.3814994 45.9889803,32.1496998 45.9889803,30.7949913 L45.9889803,19.9559677 C45.9962922,18.7607696 45.9962922,18.0590143 45.9889803,17.6342558 C45.9793836,17.0653506 45.9569912,16.9921475 45.9250021,16.8859579 C45.2632838,14.7210451 44.2569967,12.6166831 42.9774309,10.6822244 L42.9774309,10.6822244 C42.0977294,9.35191694 41.0873294,8.10384994 39.9672523,6.97281746 C39.158384,6.1567389 38.296048,5.39895166 37.3816155,4.71978993 C33.2234836,1.63215713 28.2651662,0 23.0417958,0 C17.8133986,0 12.8500543,1.63532023 8.68918057,4.72973109 C7.75646851,5.42290081 6.86899823,6.20102223 6.03636649,7.04421304 L6.03636649,7.04421304 Z M42.9774309,30.7949913 C42.9774309,31.9576547 42.0209554,32.9034202 40.8451259,32.9034202 L29.657151,32.9034202 C28.8537665,32.9034202 28.1266989,32.4642018 27.7601947,31.757476 C26.8754664,30.0521158 25.1215472,28.9924789 23.1830051,28.9924789 L23.1830051,28.9924789 C21.2449199,28.9924789 19.4910008,30.0521158 18.6062724,31.7570241 C18.2393112,32.4642018 17.5127007,32.9034202 16.7088592,32.9034202 L5.16169188,32.9034202 C3.98586231,32.9034202 3.02938689,31.9576547 3.02938689,30.7949913 L3.02938689,27.2907336 C3.05269326,27.3336614 3.07554265,27.3765891 3.09930602,27.4199687 L3.09930602,27.313779 L9.63560227,22.0521961 C10.0085043,22.6129677 10.2941217,23.0336593 10.4892554,23.3079449 C10.918824,23.9102886 11.6157303,24.7137148 12.7097591,24.7322415 L12.7472321,24.7322415 C13.9385992,24.7322415 14.6825753,23.7607194 14.9668217,23.3892816 C15.6957172,22.4322194 16.5466285,21.4033097 17.3687495,20.4078385 C18.2274296,19.3689876 19.1130719,18.2976021 19.9027468,17.2587512 C19.9114295,17.2718555 19.9196553,17.2849597 19.9278811,17.2985159 C20.5178523,18.2284658 21.1160493,18.9415179 21.7489774,19.696142 C22.0684119,20.0770691 22.3983571,20.4706485 22.737899,20.9067038 C23.0641882,21.3861386 23.8762555,22.5361497 25.1900954,22.5361497 L25.2129448,22.5361497 C26.5839081,22.5221417 27.3964324,21.2700078 27.7003293,20.8018697 C28.9894918,18.8253871 30.3184123,16.9835619 31.7250207,15.0332878 C31.9580845,14.711104 32.1906913,14.3880164 32.424212,14.0640251 L42.8636409,25.0598478 C42.9033988,25.0024602 42.9440708,24.9441689 42.9774309,24.8949149 L42.9774309,30.7949913 Z M12.9519626,5.53496475 C16.0224635,3.85762055 19.4599256,2.97782821 23.0417958,2.97782821 C26.6300639,2.97782821 30.0730099,3.86033177 33.1476237,5.5435503 C33.9921371,6.00581407 34.8101452,6.52501356 35.5943363,7.10702308 C39.0802391,9.6953387 41.6955801,13.3622698 42.9687481,17.4422108 C42.971947,17.4873978 42.9751459,17.5447854 42.9774309,17.6112104 L42.9774309,17.6112104 L42.9774309,20.828982 L33.2257686,10.5575081 L32.8647482,10.4382142 C32.1212291,10.1928484 31.3338392,10.4305324 30.9047276,11.0319724 C30.3604552,11.7978933 29.8157257,12.5529693 29.2737382,13.3039785 C27.9137426,15.1891832 26.5075912,17.1376499 25.1827836,19.1670014 C25.1823266,19.1665495 25.1823266,19.1656458 25.1814126,19.1651939 L25.1480525,19.1204587 C24.7664677,18.6292752 24.4109312,18.2049686 24.0668194,17.7951218 C23.4745633,17.0892997 22.9636509,16.4792742 22.4801579,15.7174201 C22.0039766,14.9655072 21.2851348,13.8295041 20.0201926,13.7807021 C18.7945514,13.7314482 18.0332098,14.7535798 17.6667056,15.2434077 C16.8747457,16.3003334 15.9406627,17.4304621 15.0371979,18.5235374 C14.2699154,19.45168 13.4788695,20.4087422 12.7673395,21.3296548 C12.4638997,20.8890808 12.0096538,20.2063041 11.4132847,19.2939771 C11.1194416,18.8434619 10.6469162,18.5511016 10.1168104,18.4923584 C9.62234962,18.4363264 9.13337269,18.5922218 8.7590997,18.9180206 L3.09930602,23.4742333 L3.09930602,23.1068624 C3.07645663,23.1249372 3.05269326,23.1425602 3.02938689,23.160635 L3.02938689,21.1466471 L3.02938689,20.8565461 C3.04812338,20.8583536 3.06685988,20.8601611 3.08559638,20.8619685 C3.07142976,19.2374932 3.07462868,17.8850441 3.10524686,17.4747454 C4.37338795,13.3862189 6.98872903,9.71070231 10.4782877,7.11560862 C11.2707046,6.52636917 12.0978524,6.00174723 12.9519626,5.53496475 L12.9519626,5.53496475 Z" id="Fill-7"></path>
                    </g>
                </g>
            </g>
        </g>
    </g>
</svg>